<svg width="650" height="517" viewBox="0 0 650 517" fill="none" xmlns="http://www.w3.org/2000/svg">
<g clip-path="url(#clip0_0_1)">
<path d="M484.634 510.031C475.641 502.432 470.179 490.428 471.611 478.743C473.044 467.057 481.916 456.314 493.425 453.833C504.933 451.351 518.052 458.221 521.548 469.463C523.471 447.788 525.688 425.206 537.212 406.748C547.646 390.035 565.718 378.076 585.305 375.936C604.891 373.797 625.513 381.877 637.729 397.337C649.944 412.796 652.935 435.271 644.379 453.019C638.077 466.094 626.466 475.824 614.3 483.74C574.989 509.105 527.839 519.42 481.528 512.787" fill="#F2F2F2"/>
<path d="M618.36 382.325C602.199 395.489 587.373 410.211 574.096 426.279C553.318 451.34 536.504 479.438 524.24 509.593C523.342 511.793 526.915 512.751 527.802 510.576C547.868 461.566 579.901 418.37 620.972 384.938C622.816 383.436 620.189 380.836 618.36 382.325Z" fill="white"/>
<path d="M158.838 515.232H107.838C106.114 515.23 104.462 514.544 103.244 513.326C102.025 512.107 101.34 510.455 101.338 508.732V402.732C101.34 401.008 102.025 399.356 103.244 398.138C104.462 396.919 106.114 396.234 107.838 396.232H158.838C160.561 396.234 162.213 396.919 163.432 398.138C164.65 399.356 165.336 401.008 165.338 402.732V508.732C165.336 510.455 164.65 512.107 163.432 513.326C162.213 514.544 160.561 515.23 158.838 515.232Z" fill="#FFEDE1"/>
<path d="M279.838 516.232H228.838C226.849 516.229 224.943 515.439 223.537 514.033C222.131 512.626 221.34 510.72 221.338 508.732V302.732C221.34 300.743 222.131 298.837 223.537 297.431C224.943 296.025 226.849 295.234 228.838 295.232H279.838C281.826 295.234 283.733 296.025 285.139 297.431C286.545 298.837 287.336 300.743 287.338 302.732V508.732C287.336 510.72 286.545 512.626 285.139 514.033C283.733 515.439 281.826 516.229 279.838 516.232ZM228.838 297.232C227.38 297.233 225.982 297.813 224.951 298.844C223.919 299.875 223.339 301.273 223.338 302.732V508.732C223.339 510.19 223.919 511.588 224.951 512.619C225.982 513.65 227.38 514.23 228.838 514.232H279.838C281.296 514.23 282.694 513.65 283.725 512.619C284.756 511.588 285.336 510.19 285.338 508.732V302.732C285.336 301.273 284.756 299.875 283.725 298.844C282.694 297.813 281.296 297.233 279.838 297.232H228.838Z" fill="#3F3D56"/>
<path d="M400.838 516.232H349.838C347.849 516.229 345.943 515.439 344.537 514.033C343.131 512.626 342.34 510.72 342.338 508.732V171.732C342.34 169.743 343.131 167.837 344.537 166.431C345.943 165.025 347.849 164.234 349.838 164.232H400.838C402.826 164.234 404.733 165.025 406.139 166.431C407.545 167.837 408.336 169.743 408.338 171.732V508.732C408.336 510.72 407.545 512.626 406.139 514.033C404.733 515.439 402.826 516.229 400.838 516.232ZM349.838 166.232C348.38 166.233 346.982 166.813 345.95 167.844C344.919 168.875 344.339 170.273 344.338 171.732V508.732C344.339 510.19 344.919 511.588 345.95 512.619C346.982 513.65 348.38 514.23 349.838 514.232H400.838C402.296 514.23 403.694 513.65 404.725 512.619C405.756 511.588 406.336 510.19 406.338 508.732V171.732C406.336 170.273 405.756 168.875 404.725 167.844C403.694 166.813 402.296 166.233 400.838 166.232H349.838Z" fill="#3F3D56"/>
<path d="M522.967 515.732H471.967C470.244 515.73 468.592 515.044 467.373 513.826C466.155 512.607 465.469 510.955 465.467 509.232V34.2316C465.469 32.5083 466.155 30.8562 467.373 29.6376C468.592 28.4191 470.244 27.7336 471.967 27.7316H522.967C524.69 27.7336 526.343 28.4191 527.561 29.6376C528.78 30.8562 529.465 32.5083 529.467 34.2316V509.232C529.465 510.955 528.78 512.607 527.561 513.826C526.343 515.044 524.69 515.73 522.967 515.732Z" fill="#FFEDE1"/>
<path d="M648.485 515.807H1.19069C0.875495 515.806 0.573517 515.68 0.350965 515.457C0.128413 515.234 0.00346148 514.932 0.00346148 514.617C0.00346148 514.301 0.128413 513.999 0.350965 513.776C0.573517 513.553 0.875495 513.427 1.19069 513.426H648.485C648.8 513.427 649.102 513.553 649.324 513.776C649.547 513.999 649.672 514.301 649.672 514.617C649.672 514.932 649.547 515.234 649.324 515.457C649.102 515.68 648.8 515.806 648.485 515.807Z" fill="#3F3D56"/>
</g>
<path d="M172.468 326.563C172.565 325.993 172.522 325.411 172.344 324.858C172.165 324.304 171.855 323.792 171.435 323.358C171.015 322.923 170.495 322.578 169.912 322.345C169.33 322.112 168.698 321.997 168.062 322.009L160.741 309.022L158.852 314.463L163.783 326.317C163.879 327.284 164.364 328.187 165.145 328.854C165.925 329.52 166.948 329.905 168.018 329.936C169.089 329.966 170.133 329.639 170.954 329.018C171.774 328.396 172.313 327.523 172.468 326.563Z" fill="#A0616A"/>
<path d="M111.084 375.682L115.31 378.632L129.882 365.383L123.646 361.028L111.084 375.682Z" fill="#A0616A"/>
<path d="M120.384 387.918L107 378.607L110.985 373.976L119.198 379.69C120.569 380.644 121.465 382.047 121.687 383.59C121.91 385.133 121.441 386.69 120.384 387.918Z" fill="#2F2E41"/>
<path d="M133.638 391.169L139.055 391.314L142.159 373.089L134.166 372.875L133.638 391.169Z" fill="#A0616A"/>
<path d="M149.1 396.287L132.209 395.834L132.378 389.973L142.743 390.25C144.474 390.296 146.116 390.958 147.308 392.091C148.5 393.223 149.145 394.732 149.1 396.287Z" fill="#2F2E41"/>
<path d="M152.1 317.238C152.1 317.238 154.074 336.244 147.394 349.137L142.056 373.829L134.072 373.615L135.761 344.25L133.574 318.048C133.574 318.048 139.796 306.451 152.1 317.238Z" fill="#2F2E41"/>
<path d="M122.48 320.865L130.441 348.192L112.689 372.078L121.026 378.786L141.268 352.019L136.548 318.492L122.48 320.865Z" fill="#2F2E41"/>
<path d="M147.189 259.512C153.122 259.671 158.055 255.489 158.209 250.171C158.362 244.853 153.678 240.413 147.745 240.254C141.813 240.095 136.879 244.277 136.725 249.595C136.572 254.913 141.257 259.353 147.189 259.512Z" fill="#A0616A"/>
<path d="M138.277 263.058C138.277 263.058 144.986 259.295 152.209 268.164L152.612 322.792C152.612 322.792 147.101 315.546 135.037 321.927C122.973 328.307 120.552 320.75 120.552 320.75C120.552 320.75 113.825 264.177 138.277 263.058Z" fill="#CCCCCC"/>
<path d="M151.652 267.833C153.507 267.975 155.242 268.741 156.522 269.983C157.802 271.226 158.537 272.857 158.585 274.563L159.264 298.406L167.659 321.156L162.377 324.966L146.355 297.665L143.553 275.502C143.425 274.486 143.543 273.458 143.901 272.49C144.258 271.523 144.845 270.64 145.62 269.907C146.394 269.174 147.337 268.607 148.38 268.249C149.423 267.89 150.54 267.748 151.652 267.833Z" fill="#CCCCCC"/>
<path d="M139.508 256.994C141.214 258.72 144.499 257.906 144.794 255.619C144.817 255.441 144.821 255.262 144.806 255.083C144.717 254.064 144.09 253.124 144.278 252.055C144.321 251.789 144.439 251.538 144.621 251.325C146.067 249.68 149.279 252.203 150.643 250.715C151.479 249.803 150.57 248.308 151.222 247.281C152.081 245.925 154.489 246.67 156.033 245.957C157.751 245.163 157.717 242.826 156.643 241.376C155.333 239.608 152.976 238.62 150.625 238.423C148.275 238.227 145.921 238.736 143.7 239.447C141.178 240.254 138.667 241.396 137.073 243.327C135.135 245.676 134.862 248.896 135.715 251.727C136.235 253.448 138.115 255.585 139.508 256.994Z" fill="#2F2E41"/>
<defs>
<clipPath id="clip0_0_1">
<rect width="649.675" height="516.232" fill="white"/>
</clipPath>
</defs>
</svg>
