<?xml version="1.0" encoding="UTF-8" standalone="no"?>
<!-- Created with Inkscape (http://www.inkscape.org/) -->
<svg xmlns:rdf="http://www.w3.org/1999/02/22-rdf-syntax-ns#" xmlns="http://www.w3.org/2000/svg" xmlns:cc="http://web.resource.org/cc/" xmlns:xlink="http://www.w3.org/1999/xlink" xmlns:dc="http://purl.org/dc/elements/1.1/" xmlns:svg="http://www.w3.org/2000/svg" xmlns:inkscape="http://www.inkscape.org/namespaces/inkscape" xmlns:sodipodi="http://sodipodi.sourceforge.net/DTD/sodipodi-0.dtd" xmlns:ns1="http://sozi.baierouge.fr" id="svg2" viewBox="0 0 729.92 505.92" version="1.0" inkscape:version="0.91 r13725">
  <defs id="defs4">
    <linearGradient id="linearGradient2842">
      <stop id="stop2844" style="stop-color:#e1b27f" offset="0"/>
      <stop id="stop2846" style="stop-color:#f7e1c9" offset="1"/>
    </linearGradient>
    <linearGradient id="linearGradient2808">
      <stop id="stop2810" style="stop-color:black" offset="0"/>
      <stop id="stop2812" style="stop-color:black;stop-opacity:0" offset="1"/>
    </linearGradient>
    <linearGradient id="linearGradient2814" y2="656.33" xlink:href="#linearGradient2808" gradientUnits="userSpaceOnUse" x2="310.89" y1="656.33" x1="255.4"/>
    <linearGradient id="linearGradient2816" y2="673.9" xlink:href="#linearGradient2808" gradientUnits="userSpaceOnUse" x2="320.26" y1="673.9" x1="298.74"/>
    <linearGradient id="linearGradient2818" y2="673.37" xlink:href="#linearGradient2808" gradientUnits="userSpaceOnUse" x2="339.52" y1="673.37" x1="332.69"/>
    <linearGradient id="linearGradient2820" y2="659.36" xlink:href="#linearGradient2808" gradientUnits="userSpaceOnUse" x2="383.11" y1="659.36" x1="356.26"/>
    <linearGradient id="linearGradient2822" y2="641.49" xlink:href="#linearGradient2808" gradientUnits="userSpaceOnUse" x2="430.76" y1="641.49" x1="375.78"/>
    <linearGradient id="linearGradient2824" y2="613.26" xlink:href="#linearGradient2808" gradientUnits="userSpaceOnUse" x2="456.35" y1="613.26" x1="380.59"/>
    <linearGradient id="linearGradient2826" y2="571.64" xlink:href="#linearGradient2808" gradientUnits="userSpaceOnUse" x2="433.04" y1="571.64" x1="379.33"/>
    <linearGradient id="linearGradient2828" y2="549.06" xlink:href="#linearGradient2808" gradientUnits="userSpaceOnUse" x2="360.05" y1="549.06" x1="358.8"/>
    <linearGradient id="linearGradient2830" y2="556.27" xlink:href="#linearGradient2808" gradientUnits="userSpaceOnUse" x2="345.35" y1="556.27" x1="308.62"/>
    <linearGradient id="linearGradient2832" y2="574.67" xlink:href="#linearGradient2808" gradientUnits="userSpaceOnUse" x2="324.82" y1="574.67" x1="274.15"/>
    <linearGradient id="linearGradient2834" y2="614.93" xlink:href="#linearGradient2808" gradientUnits="userSpaceOnUse" x2="311.39" y1="614.93" x1="245.26"/>
    <linearGradient id="linearGradient2933" y2="195.51" xlink:href="#linearGradient2842" gradientUnits="userSpaceOnUse" x2="219.5" y1="217.67" x1="197.09"/>
  </defs>
  <g id="layer1" transform="translate(-9.3361 -9.8839)">
    <g id="g3922" transform="matrix(.57512 0 0 .57512 99.138 82.048)">
      <path id="path2836" style="fill-rule:evenodd;stroke:black;stroke-width:1px;fill:lime" d="m-155.64 410.76c339.59 69.43 520.03 342.94 520.03 342.94s34.4-219.28 264.58-481.78c318.31-363.02 483.53-396.48 483.53-396.48s-297-27.6-612.27 364.69c-183.89 228.82-226.06 246.75-226.06 246.75s-236.19-161.43-429.81-76.12z"/>
      <g id="g2852" transform="matrix(.99621 -.087027 .087027 .99621 60.195 331.02)">
        <path id="path2838" style="fill-rule:evenodd;stroke:black;stroke-width:3.125;fill:#a55500" d="m113.66 113.01c-28.313 32.53-12.54 39.33-3.58 35.78s148.73 148.75 148.73 148.75 3.59-10.35 14.7-21.88c11.11-11.54 24.73-10.35 24.73-10.35l-148.38-149.05s-3.94-34.896-36.2-3.25z"/>
        <path id="path2850" style="fill-rule:evenodd;fill-opacity:.39474;stroke:black;stroke-width:1px;fill:#ffe7cd" d="m142.58 119.92s5.2-27.286-21.66-0.31c-26.867 26.97-0.89 25.3-0.89 25.3l23.06-22.06-0.51-2.93z"/>
        <path id="path2840" style="fill-rule:evenodd;stroke:black;stroke-width:1px;fill:url(#linearGradient2933)" d="m291.48 264.34l-148.38-145.29s-12.67 11.12-24.71 25.51c38.9 32.9 141.29 146.22 141.29 146.22l14.95-19.06c5.74-4.02 11.92-5 16.85-7.38z"/>
      </g>
      <g id="g2935" transform="matrix(.99621 -.087027 .087027 .99621 90.54 288.62)">
        <path id="path2937" style="fill-rule:evenodd;stroke:black;stroke-width:3.125;fill:#a55500" d="m113.66 113.01c-28.313 32.53-12.54 39.33-3.58 35.78s148.73 148.75 148.73 148.75 3.59-10.35 14.7-21.88c11.11-11.54 24.73-10.35 24.73-10.35l-148.38-149.05s-3.94-34.896-36.2-3.25z"/>
        <path id="path2939" style="fill-rule:evenodd;fill-opacity:.39474;stroke:black;stroke-width:1px;fill:#ffe7cd" d="m142.58 119.92s5.2-27.286-21.66-0.31c-26.867 26.97-0.89 25.3-0.89 25.3l23.06-22.06-0.51-2.93z"/>
        <path id="path2941" style="fill-rule:evenodd;stroke:black;stroke-width:1px;fill:url(#linearGradient2933)" d="m291.48 264.34l-148.38-145.29s-12.67 11.12-24.71 25.51c38.9 32.9 141.29 146.22 141.29 146.22l14.95-19.06c5.74-4.02 11.92-5 16.85-7.38z"/>
      </g>
      <g id="g3842" transform="matrix(.99621 -.087027 .087027 .99621 124.89 252.17)">
        <path id="path3844" style="fill-rule:evenodd;stroke:black;stroke-width:3.125;fill:#a55500" d="m113.66 113.01c-28.313 32.53-12.54 39.33-3.58 35.78s148.73 148.75 148.73 148.75 3.59-10.35 14.7-21.88c11.11-11.54 24.73-10.35 24.73-10.35l-148.38-149.05s-3.94-34.896-36.2-3.25z"/>
        <path id="path3846" style="fill-rule:evenodd;fill-opacity:.39474;stroke:black;stroke-width:1px;fill:#ffe7cd" d="m142.58 119.92s5.2-27.286-21.66-0.31c-26.867 26.97-0.89 25.3-0.89 25.3l23.06-22.06-0.51-2.93z"/>
        <path id="path3848" style="fill-rule:evenodd;stroke:black;stroke-width:1px;fill:url(#linearGradient2933)" d="m291.48 264.34l-148.38-145.29s-12.67 11.12-24.71 25.51c38.9 32.9 141.29 146.22 141.29 146.22l14.95-19.06c5.74-4.02 11.92-5 16.85-7.38z"/>
      </g>
      <g id="g3852" transform="matrix(.99621 -.087027 .087027 .99621 149.17 203.72)">
        <path id="path3854" style="fill-rule:evenodd;stroke:black;stroke-width:3.125;fill:#a55500" d="m113.66 113.01c-28.313 32.53-12.54 39.33-3.58 35.78s148.73 148.75 148.73 148.75 3.59-10.35 14.7-21.88c11.11-11.54 24.73-10.35 24.73-10.35l-148.38-149.05s-3.94-34.896-36.2-3.25z"/>
        <path id="path3856" style="fill-rule:evenodd;fill-opacity:.39474;stroke:black;stroke-width:1px;fill:#ffe7cd" d="m142.58 119.92s5.2-27.286-21.66-0.31c-26.867 26.97-0.89 25.3-0.89 25.3l23.06-22.06-0.51-2.93z"/>
        <path id="path3858" style="fill-rule:evenodd;stroke:black;stroke-width:1px;fill:url(#linearGradient2933)" d="m291.48 264.34l-148.38-145.29s-12.67 11.12-24.71 25.51c38.9 32.9 141.29 146.22 141.29 146.22l14.95-19.06c5.74-4.02 11.92-5 16.85-7.38z"/>
      </g>
      <g id="g3862" transform="matrix(.99621 -.087027 .087027 .99621 183.49 163.3)">
        <path id="path3864" style="fill-rule:evenodd;stroke:black;stroke-width:3.125;fill:#a55500" d="m113.66 113.01c-28.313 32.53-12.54 39.33-3.58 35.78s148.73 148.75 148.73 148.75 3.59-10.35 14.7-21.88c11.11-11.54 24.73-10.35 24.73-10.35l-148.38-149.05s-3.94-34.896-36.2-3.25z"/>
        <path id="path3866" style="fill-rule:evenodd;fill-opacity:.39474;stroke:black;stroke-width:1px;fill:#ffe7cd" d="m142.58 119.92s5.2-27.286-21.66-0.31c-26.867 26.97-0.89 25.3-0.89 25.3l23.06-22.06-0.51-2.93z"/>
        <path id="path3868" style="fill-rule:evenodd;stroke:black;stroke-width:1px;fill:url(#linearGradient2933)" d="m291.48 264.34l-148.38-145.29s-12.67 11.12-24.71 25.51c38.9 32.9 141.29 146.22 141.29 146.22l14.95-19.06c5.74-4.02 11.92-5 16.85-7.38z"/>
      </g>
      <g id="g2905">
        <path id="path1872" style="stroke:black;stroke-width:37.5;fill:none" d="m359.86 511.02c-142.93-10.04-179.17 239.22-0.76 183.8 178.41-55.41 96.81-167.49 0.76-183.8z"/>
        <g id="g2857">
          <path id="path1876" style="stroke:black;stroke-linecap:round;stroke-width:23.344;fill:none" d="m40.893 411.03c65.717-13.48 306.23 212.92 306.23 212.92s471.7-733.93 570.05-697.85c98.33 36.085 84.33 45.601 84.33 45.601"/>
          <path id="path1874" style="fill-rule:evenodd;stroke:black;stroke-width:6.25;fill:white" d="m360.11 587.97c-58.03-1.05-62.85 78-12.92 52.49 49.92-25.52 41.81-56.46 12.92-52.49z"/>
          <path id="path2794" style="stroke:black;stroke-width:1px;fill:none" d="m344.85 590.67l-35.73-68.8"/>
          <path id="path2796" style="stroke:black;stroke-width:1px;fill:none" d="m344.85 590.67l-35.73-68.8"/>
          <path id="path2798" style="stroke:black;stroke-width:1px;fill:none" d="m344.85 590.67l-35.73-68.8"/>
          <path id="path2764" style="fill-rule:evenodd;stroke:black;stroke-width:3.75;fill:url(#linearGradient2830)" d="m344.85 590.67l-35.73-68.8"/>
          <path id="path2786" style="stroke:black;stroke-width:1px;fill:none" d="m359.55 585.86l-0.25-73.6"/>
          <path id="path2788" style="stroke:black;stroke-width:1px;fill:none" d="m359.55 585.86l-0.25-73.6"/>
          <path id="path2790" style="stroke:black;stroke-width:1px;fill:none" d="m359.55 585.86l-0.25-73.6"/>
          <path id="path2792" style="stroke:black;stroke-width:1px;fill:none" d="m359.55 585.86l-0.25-73.6"/>
          <path id="path2766" style="fill-rule:evenodd;stroke:black;stroke-width:3.75;fill:url(#linearGradient2828)" d="m359.55 585.86l-0.25-73.6"/>
          <path id="path2768" style="fill-rule:evenodd;stroke:black;stroke-width:3.75;fill:url(#linearGradient2826)" d="m379.83 592.34l52.71-41.4"/>
          <path id="path2770" style="fill-rule:evenodd;stroke:black;stroke-width:3.75;fill:url(#linearGradient2824)" d="m381.09 606.36l74.76 13.8"/>
          <path id="path2772" style="fill-rule:evenodd;stroke:black;stroke-width:3.75;fill:url(#linearGradient2822)" d="m376.28 623.71l53.98 35.55"/>
          <path id="path2774" style="fill-rule:evenodd;stroke:black;stroke-width:3.75;fill:url(#linearGradient2820)" d="m356.76 635.63l25.85 47.47"/>
          <path id="path2776" style="fill-rule:evenodd;stroke:black;stroke-width:3.75;fill:url(#linearGradient2818)" d="m333.19 647.76l5.83 51.23"/>
          <path id="path2778" style="fill-rule:evenodd;stroke:black;stroke-width:3.75;fill:url(#linearGradient2816)" d="m319.76 646.92l-20.52 53.95"/>
          <path id="path2780" style="fill-rule:evenodd;stroke:black;stroke-width:3.75;fill:url(#linearGradient2814)" d="m310.39 635.42l-54.49 41.82"/>
          <path id="path2782" style="fill-rule:evenodd;stroke:black;stroke-width:3.75;fill:url(#linearGradient2834)" d="m310.89 616.18l-65.13-2.51"/>
          <path id="path2800" style="stroke:black;stroke-width:1px;fill:none" d="m324.32 599.25l-49.67-49.15"/>
          <path id="path2802" style="stroke:black;stroke-width:1px;fill:none" d="m324.32 599.25l-49.67-49.15"/>
          <path id="path2804" style="stroke:black;stroke-width:1px;fill:none" d="m324.32 599.25l-49.67-49.15"/>
          <path id="path2806" style="stroke:black;stroke-width:1px;fill:none" d="m324.32 599.25l-49.67-49.15"/>
          <path id="path2784" style="fill-rule:evenodd;stroke:black;stroke-width:3.75;fill:url(#linearGradient2832)" d="m324.32 599.25l-49.67-49.15"/>
        </g>
      </g>
      <g id="g3872" transform="matrix(.99621 -.087027 .087027 .99621 208.4 117.13)">
        <path id="path3874" style="fill-rule:evenodd;stroke:black;stroke-width:3.125;fill:#a55500" d="m113.66 113.01c-28.313 32.53-12.54 39.33-3.58 35.78s148.73 148.75 148.73 148.75 3.59-10.35 14.7-21.88c11.11-11.54 24.73-10.35 24.73-10.35l-148.38-149.05s-3.94-34.896-36.2-3.25z"/>
        <path id="path3876" style="fill-rule:evenodd;fill-opacity:.39474;stroke:black;stroke-width:1px;fill:#ffe7cd" d="m142.58 119.92s5.2-27.286-21.66-0.31c-26.867 26.97-0.89 25.3-0.89 25.3l23.06-22.06-0.51-2.93z"/>
        <path id="path3878" style="fill-rule:evenodd;stroke:black;stroke-width:1px;fill:url(#linearGradient2933)" d="m291.48 264.34l-148.38-145.29s-12.67 11.12-24.71 25.51c38.9 32.9 141.29 146.22 141.29 146.22l14.95-19.06c5.74-4.02 11.92-5 16.85-7.38z"/>
      </g>
      <g id="g3880" transform="matrix(.99621 -.087027 .087027 .99621 238.74 74.723)">
        <path id="path3882" style="fill-rule:evenodd;stroke:black;stroke-width:3.125;fill:#a55500" d="m113.66 113.01c-28.313 32.53-12.54 39.33-3.58 35.78s148.73 148.75 148.73 148.75 3.59-10.35 14.7-21.88c11.11-11.54 24.73-10.35 24.73-10.35l-148.38-149.05s-3.94-34.896-36.2-3.25z"/>
        <path id="path3884" style="fill-rule:evenodd;fill-opacity:.39474;stroke:black;stroke-width:1px;fill:#ffe7cd" d="m142.58 119.92s5.2-27.286-21.66-0.31c-26.867 26.97-0.89 25.3-0.89 25.3l23.06-22.06-0.51-2.93z"/>
        <path id="path3886" style="fill-rule:evenodd;stroke:black;stroke-width:1px;fill:url(#linearGradient2933)" d="m291.48 264.34l-148.38-145.29s-12.67 11.12-24.71 25.51c38.9 32.9 141.29 146.22 141.29 146.22l14.95-19.06c5.74-4.02 11.92-5 16.85-7.38z"/>
      </g>
      <g id="g3888" transform="matrix(.99621 -.087027 .087027 .99621 273.09 38.276)">
        <path id="path3890" style="fill-rule:evenodd;stroke:black;stroke-width:3.125;fill:#a55500" d="m113.66 113.01c-28.313 32.53-12.54 39.33-3.58 35.78s148.73 148.75 148.73 148.75 3.59-10.35 14.7-21.88c11.11-11.54 24.73-10.35 24.73-10.35l-148.38-149.05s-3.94-34.896-36.2-3.25z"/>
        <path id="path3892" style="fill-rule:evenodd;fill-opacity:.39474;stroke:black;stroke-width:1px;fill:#ffe7cd" d="m142.58 119.92s5.2-27.286-21.66-0.31c-26.867 26.97-0.89 25.3-0.89 25.3l23.06-22.06-0.51-2.93z"/>
        <path id="path3894" style="fill-rule:evenodd;stroke:black;stroke-width:1px;fill:url(#linearGradient2933)" d="m291.48 264.34l-148.38-145.29s-12.67 11.12-24.71 25.51c38.9 32.9 141.29 146.22 141.29 146.22l14.95-19.06c5.74-4.02 11.92-5 16.85-7.38z"/>
      </g>
      <g id="g3896" transform="matrix(.99621 -.087027 .087027 .99621 297.37 -10.171)">
        <path id="path3898" style="fill-rule:evenodd;stroke:black;stroke-width:3.125;fill:#a55500" d="m113.66 113.01c-28.313 32.53-12.54 39.33-3.58 35.78s148.73 148.75 148.73 148.75 3.59-10.35 14.7-21.88c11.11-11.54 24.73-10.35 24.73-10.35l-148.38-149.05s-3.94-34.896-36.2-3.25z"/>
        <path id="path3900" style="fill-rule:evenodd;fill-opacity:.39474;stroke:black;stroke-width:1px;fill:#ffe7cd" d="m142.58 119.92s5.2-27.286-21.66-0.31c-26.867 26.97-0.89 25.3-0.89 25.3l23.06-22.06-0.51-2.93z"/>
        <path id="path3902" style="fill-rule:evenodd;stroke:black;stroke-width:1px;fill:url(#linearGradient2933)" d="m291.48 264.34l-148.38-145.29s-12.67 11.12-24.71 25.51c38.9 32.9 141.29 146.22 141.29 146.22l14.95-19.06c5.74-4.02 11.92-5 16.85-7.38z"/>
      </g>
      <g id="g3904" transform="matrix(.99621 -.087027 .087027 .99621 331.7 -50.597)">
        <path id="path3906" style="fill-rule:evenodd;stroke:black;stroke-width:3.125;fill:#a55500" d="m113.66 113.01c-28.313 32.53-12.54 39.33-3.58 35.78s148.73 148.75 148.73 148.75 3.59-10.35 14.7-21.88c11.11-11.54 24.73-10.35 24.73-10.35l-148.38-149.05s-3.94-34.896-36.2-3.25z"/>
        <path id="path3908" style="fill-rule:evenodd;fill-opacity:.39474;stroke:black;stroke-width:1px;fill:#ffe7cd" d="m142.58 119.92s5.2-27.286-21.66-0.31c-26.867 26.97-0.89 25.3-0.89 25.3l23.06-22.06-0.51-2.93z"/>
        <path id="path3910" style="fill-rule:evenodd;stroke:black;stroke-width:1px;fill:url(#linearGradient2933)" d="m291.48 264.34l-148.38-145.29s-12.67 11.12-24.71 25.51c38.9 32.9 141.29 146.22 141.29 146.22l14.95-19.06c5.74-4.02 11.92-5 16.85-7.38z"/>
      </g>
    </g>
  </g>
  <metadata>
    <rdf:RDF>
      <cc:Work>
        <dc:format>image/svg+xml</dc:format>
        <dc:type rdf:resource="http://purl.org/dc/dcmitype/StillImage"/>
        <cc:license rdf:resource="http://creativecommons.org/licenses/publicdomain/"/>
        <dc:publisher>
          <cc:Agent rdf:about="http://openclipart.org/">
            <dc:title>Openclipart</dc:title>
          </cc:Agent>
        </dc:publisher>
        <dc:title>LibraryCheckout approved</dc:title>
        <dc:date>2006-09-16T12:51:12</dc:date>
        <dc:description>Image for library checkout system filling a clipart request.</dc:description>
        <dc:source>https://openclipart.org/detail/149/librarycheckout-approved-by-bpcomp</dc:source>
        <dc:creator>
          <cc:Agent>
            <dc:title>bpcomp</dc:title>
          </cc:Agent>
        </dc:creator>
        <dc:subject>
          <rdf:Bag>
            <rdf:li>book</rdf:li>
            <rdf:li>cart</rdf:li>
            <rdf:li>checkout</rdf:li>
            <rdf:li>library</rdf:li>
            <rdf:li>okay</rdf:li>
            <rdf:li>request+completed</rdf:li>
            <rdf:li>shopping</rdf:li>
            <rdf:li>source+wiki</rdf:li>
          </rdf:Bag>
        </dc:subject>
      </cc:Work>
      <cc:License rdf:about="http://creativecommons.org/licenses/publicdomain/">
        <cc:permits rdf:resource="http://creativecommons.org/ns#Reproduction"/>
        <cc:permits rdf:resource="http://creativecommons.org/ns#Distribution"/>
        <cc:permits rdf:resource="http://creativecommons.org/ns#DerivativeWorks"/>
      </cc:License>
    </rdf:RDF>
  </metadata>
</svg>
