<svg width="589" height="651" viewBox="0 0 589 651" fill="none" xmlns="http://www.w3.org/2000/svg">
<g clip-path="url(#clip0_1_2)">
<path d="M197.562 92.075H183.873V123.186H197.562V92.075Z" fill="#CCCCCF"/>
<path d="M400.386 92.075H386.698V123.186H400.386V92.075Z" fill="#CCCCCF"/>
<path d="M537.277 302.387H61.9157V628.423H537.277V302.387Z" fill="#CCCCCF"/>
<path d="M526.076 314.826H70.6259V618.46H526.076V314.826Z" fill="url(#paint0_linear_1_2)"/>
<path d="M497.455 390.742H278.447V508.959H497.455V390.742Z" fill="url(#paint1_linear_1_2)"/>
<path d="M238.618 390.742H105.467V628.423H238.618V390.742Z" fill="url(#paint2_linear_1_2)"/>
<path d="M231.775 402.554H112.312V627.796H231.775V402.554Z" fill="url(#paint3_linear_1_2)"/>
<path d="M222.446 416.246H121.649V614.105H222.446V416.246Z" fill="url(#paint4_radial_1_2)"/>
<path opacity="0.76889" d="M128.403 416.246C151.86 431.13 191.101 457.963 222.427 489.167V416.248H128.402L128.403 416.246Z" fill="url(#paint5_radial_1_2)"/>
<path d="M486.896 402.172H289.007V497.512H486.896V402.172Z" fill="url(#paint6_linear_1_2)"/>
<path d="M477.223 409.217H298.68V490.478H477.223V409.217Z" fill="url(#paint7_linear_1_2)"/>
<path d="M336.653 409.232C363.631 430.914 403.518 463.782 435.836 490.46H477.238V409.232H336.653Z" fill="url(#paint8_linear_1_2)"/>
<path d="M588.3 624.172H18.3649V650.304H588.3V624.172Z" fill="url(#paint9_linear_1_2)"/>
<path d="M572.607 631.629H28.2058V642.313H572.607V631.629Z" fill="url(#paint10_linear_1_2)"/>
<path d="M62.4047 253.626V337.959C62.4047 352.957 74.4825 365.035 89.4811 365.035H99.7481C112.11 365.035 122.506 356.833 125.773 345.552C129.044 356.827 139.346 365.035 151.704 365.035H161.97C174.328 365.035 184.678 356.827 187.948 345.552C191.215 356.833 201.564 365.035 213.926 365.035H224.193C235.854 365.035 245.724 357.712 249.55 347.414C253.372 357.72 263.24 365.035 274.908 365.035H285.174C296.234 365.035 305.698 358.453 309.911 348.99C314.123 358.453 323.588 365.035 334.648 365.035H344.915C355.002 365.035 363.751 359.565 368.41 351.425C373.07 359.562 381.82 365.035 391.904 365.035H402.171C411.421 365.035 419.544 360.423 424.424 353.383C429.305 360.41 437.389 365.035 446.628 365.035H456.895C465.048 365.035 472.329 361.438 477.286 355.771C482.242 361.438 489.524 365.035 497.677 365.035H507.944C522.943 365.035 535.021 352.957 535.021 337.959V253.626H62.3946H62.4047Z" fill="#CCCCCF"/>
<path d="M518.359 140.719V321.816C518.359 333.551 530.437 343.001 545.436 343.001H557.183C572.181 343.001 584.259 333.552 584.259 321.816V310.085L518.36 140.716L518.359 140.719Z" fill="#D40000"/>
<path d="M130.787 137.168V321.816C130.787 333.551 142.865 343.001 157.864 343.001H169.563C184.561 343.001 196.639 333.551 196.639 321.816V137.168H130.787Z" fill="#D40000"/>
<path d="M65.8429 137.168V321.816C65.8429 333.551 77.9207 343.001 92.9193 343.001H104.667C119.665 343.001 131.743 333.551 131.743 321.816V137.168H65.8429Z" fill="url(#paint11_linear_1_2)"/>
<path d="M195.686 137.168V321.816C195.686 333.551 207.763 343.001 222.762 343.001H234.509C249.508 343.001 261.586 333.551 261.586 321.816V137.168H195.686Z" fill="url(#paint12_linear_1_2)"/>
<path d="M259.667 137.168V321.816C259.667 333.551 271.745 343.001 286.744 343.001H298.443C313.441 343.001 325.519 333.551 325.519 321.816V137.168H259.667Z" fill="#D40000"/>
<path d="M325.528 137.168V321.816C325.528 333.551 337.606 343.001 352.605 343.001H364.352C379.35 343.001 391.428 333.551 391.428 321.816V137.168H325.528Z" fill="url(#paint13_linear_1_2)"/>
<path d="M389.082 137.168V321.816C389.082 333.551 401.16 343.001 416.158 343.001H427.906C442.904 343.001 454.982 333.551 454.982 321.816V137.168H389.082Z" fill="#D40000"/>
<path d="M454.408 137.168V321.816C454.408 333.551 466.486 343.001 481.485 343.001H493.232C508.23 343.001 520.261 333.551 520.261 321.816V137.168H454.408Z" fill="url(#paint14_linear_1_2)"/>
<path d="M64.1315 137.168L-0.00137329 299.913V321.807C-0.00137329 333.542 12.0764 342.992 27.075 342.992H38.7745C53.7728 342.992 65.8509 333.542 65.8509 321.807V137.158H64.1318L64.1315 137.168Z" fill="#D40000"/>
<path d="M521.568 111.65H62.313V141.515H521.568V111.65Z" fill="url(#paint15_linear_1_2)"/>
<path d="M508.365 118.939H72.5818V133.161H508.365V118.939Z" fill="url(#paint16_linear_1_2)"/>
<path d="M432.459 -0.00219727H165.496C155.712 -0.00219727 147.78 7.92987 147.78 17.7146V85.5653C147.78 95.35 155.712 103.282 165.496 103.282H432.459C442.243 103.282 450.175 95.35 450.175 85.5653V17.7146C450.175 7.92987 442.243 -0.00219727 432.459 -0.00219727Z" fill="#D40000"/>
<path d="M424.986 6.21869H172.969C163.184 6.21869 155.252 14.1508 155.252 23.9355V79.3429C155.252 89.1276 163.184 97.0596 172.969 97.0596H424.986C434.771 97.0596 442.703 89.1276 442.703 79.3429V23.9355C442.703 14.1508 434.771 6.21869 424.986 6.21869Z" fill="url(#paint17_linear_1_2)"/>
<path d="M234.413 61.6196C233.601 65.4403 231.112 68.4917 226.946 70.7735C223.92 72.4185 220.666 73.2411 217.186 73.2411C215.58 73.2411 213.913 73.0553 212.185 72.6839C207.503 71.7287 203.532 69.4733 200.273 65.918C199.572 65.122 199.345 64.1403 199.594 62.9728C200.113 60.5318 201.911 59.1521 204.991 58.8337C207.523 58.5684 209.745 59.7624 211.658 62.4156C212.891 64.1667 214.981 65.0424 217.925 65.0424C220.87 65.0424 222.735 64.1402 223.52 62.336C224.226 60.5848 222.999 58.648 219.836 56.5253C219.547 56.3131 217.09 54.9599 212.468 52.4658C206.697 49.3881 204.212 45.9653 205.013 42.1977C205.724 38.8546 208.045 36.1217 211.976 33.9991C215.606 32.0356 219.595 31.054 223.945 31.0539C228.161 31.0539 232.08 31.9826 235.7 33.8398C237.394 34.6889 238.054 35.989 237.682 37.7401C237.129 40.3404 235.113 41.6404 231.633 41.6404C231.098 41.6405 229.61 41.2425 227.169 40.4465C224.806 39.5974 222.688 39.1729 220.814 39.1729C218.07 39.1729 216.484 40.1812 216.055 42.1977C215.649 44.108 217.937 45.9388 222.919 47.69C231.901 50.7679 235.733 55.4108 234.413 61.6196Z" fill="#AAAAAA"/>
<path d="M291.464 47.7695C290.252 55.6763 287.631 62.8138 283.6 69.1821C282.368 71.1986 280.414 72.2069 277.737 72.2069C276.131 72.2069 274.816 71.7824 273.792 70.9333C272.835 70.0843 272.48 69.0761 272.728 67.9085C272.841 67.3779 273.083 66.7146 273.453 65.9186C276.623 60.1345 278.734 53.9789 279.787 47.452C280.477 43.5782 279.048 41.6413 275.501 41.6413C272.222 41.6413 266.673 46.1784 258.855 55.2528L256.639 65.6802C256.346 67.0598 255.573 68.1743 254.322 69.0233C253.082 69.8192 251.592 70.2172 249.852 70.2172C248.179 70.2172 246.898 69.7927 246.007 68.9437C245.117 68.0946 244.813 67.0068 245.095 65.6801L254.908 19.5128C255.269 17.8147 256.36 16.3024 258.181 14.9757C260.069 13.6491 262.051 12.9857 264.125 12.9857C266.601 12.9858 267.603 14.1002 267.129 16.3288L261.901 40.9242C268.148 35.7769 273.714 33.2032 278.6 33.2031C282.95 33.2031 286.387 34.8217 288.911 38.0586C291.224 41.0304 292.075 44.2671 291.464 47.7695Z" fill="#AAAAAA"/>
<path d="M340.806 49.3615C339.621 54.9335 336.759 60.0542 332.22 64.7243C326.987 70.1371 321.058 72.8433 314.433 72.8433C313.228 72.8433 312.013 72.7372 310.786 72.5249C306.137 71.7289 302.935 69.6328 301.181 66.2366C299.604 63.2649 299.262 59.683 300.153 55.4909C301.337 49.919 304.193 44.8247 308.721 40.2084C314.021 34.7957 319.95 32.0894 326.508 32.0894C327.713 32.0894 328.928 32.1955 330.155 32.4077C334.804 33.2038 338.006 35.2999 339.76 38.696C341.348 41.6147 341.697 45.1693 340.806 49.3615ZM329.277 49.7602C329.616 48.1682 329.564 46.5232 329.122 44.825C328.558 42.7555 327.467 41.5881 325.851 41.3228C323.465 40.8983 320.852 42.0126 318.013 44.6658C315.766 46.7354 314.105 48.8845 313.029 51.1133C312.423 52.3869 311.974 53.7135 311.681 55.0932C311.343 56.6851 311.394 58.3303 311.837 60.0283C312.4 62.0979 313.491 63.2654 315.107 63.5306C316.724 63.7959 318.689 63.2122 321.001 61.7795C323.927 59.9753 326.237 57.2954 327.93 53.7401C328.535 52.4665 328.984 51.1398 329.277 49.7602Z" fill="#AAAAAA"/>
<path d="M390.499 48.0879C389.224 54.0843 385.337 58.8337 378.837 62.3362C373.097 65.4141 366.188 67.2183 358.112 67.749L354.762 83.5091C354.48 84.8357 353.68 85.9236 352.361 86.7727C351.11 87.6217 349.648 88.0463 347.975 88.0463C346.302 88.0463 345.02 87.6217 344.13 86.7727C343.24 85.9236 342.935 84.8358 343.217 83.5091L353.437 35.4314C353.719 34.1048 354.452 33.0169 355.636 32.1677C356.899 31.2657 358.367 30.8146 360.04 30.8146C363.063 30.7615 364.711 31.8229 364.984 33.9986C369.083 31.7167 372.973 30.5759 376.654 30.5759C381.874 30.5759 385.778 32.5128 388.368 36.3865C390.702 39.889 391.412 43.7896 390.499 48.0879ZM379.444 46.2568C379.693 44.771 379.378 43.4178 378.5 42.1973C377.622 40.9768 376.279 40.3666 374.472 40.3666C371.126 40.3666 367.156 42.5157 362.562 46.814L360.074 58.5151C371.777 57.613 378.233 53.5267 379.444 46.2568Z" fill="#AAAAAA"/>
<path d="M236.28 62.2462C235.467 66.0669 232.978 69.1182 228.813 71.4C225.786 73.045 222.533 73.8676 219.053 73.8676C217.447 73.8676 215.78 73.6819 214.052 73.3104C209.37 72.3552 205.399 70.0999 202.139 66.5445C201.438 65.7485 201.212 64.7668 201.46 63.5993C201.979 61.1583 203.778 59.7786 206.857 59.4602C209.39 59.1949 211.612 60.3889 213.524 63.0421C214.758 64.7932 216.847 65.6689 219.792 65.6689C222.736 65.6689 224.601 64.7668 225.386 62.9625C226.093 61.2114 224.865 59.2745 221.703 57.1519C221.413 56.9396 218.957 55.5865 214.334 53.0924C208.564 50.0146 206.079 46.5918 206.88 42.8242C207.591 39.4811 209.911 36.7482 213.843 34.6256C217.472 32.6622 221.462 31.6805 225.812 31.6804C230.028 31.6804 233.946 32.6091 237.567 34.4664C239.26 35.3155 239.921 36.6155 239.548 38.3667C238.996 40.9669 236.979 42.267 233.5 42.267C232.964 42.267 231.476 41.869 229.035 41.073C226.673 40.224 224.555 39.7994 222.681 39.7994C219.937 39.7994 218.351 40.8077 217.922 42.8242C217.516 44.7346 219.804 46.5653 224.785 48.3166C233.768 51.3944 237.599 56.0374 236.28 62.2462Z" fill="#D40000"/>
<path d="M293.331 48.396C292.119 56.3029 289.497 63.4404 285.467 69.8086C284.235 71.8251 282.281 72.8334 279.604 72.8334C277.998 72.8334 276.683 72.4089 275.659 71.5599C274.701 70.7108 274.347 69.7026 274.595 68.5351C274.708 68.0044 274.949 67.3411 275.319 66.5451C278.489 60.761 280.601 54.6054 281.654 48.0785C282.343 44.2047 280.915 42.2678 277.368 42.2678C274.088 42.2679 268.54 46.805 260.722 55.8793L258.505 66.3067C258.212 67.6864 257.44 68.8008 256.189 69.6498C254.949 70.4458 253.459 70.8438 251.719 70.8438C250.046 70.8438 248.764 70.4192 247.874 69.5702C246.984 68.7211 246.679 67.6333 246.961 66.3066L256.775 20.1393C257.136 18.4412 258.227 16.9289 260.048 15.6022C261.936 14.2756 263.917 13.6122 265.992 13.6122C268.468 13.6123 269.469 14.7267 268.996 16.9553L263.768 41.5507C270.015 36.4035 275.581 33.8298 280.466 33.8296C284.816 33.8297 288.253 35.4482 290.778 38.6852C293.09 41.6569 293.941 44.8936 293.331 48.396Z" fill="#D40000"/>
<path d="M342.672 49.988C341.488 55.56 338.626 60.6808 334.086 65.3508C328.854 70.7636 322.925 73.4698 316.299 73.4698C315.095 73.4698 313.879 73.3637 312.653 73.1514C308.004 72.3555 304.802 70.2593 303.048 66.8632C301.471 63.8914 301.128 60.3096 302.019 56.1174C303.204 50.5456 306.06 45.4512 310.588 40.8349C315.888 35.4223 321.817 32.7159 328.375 32.7159C329.58 32.7159 330.795 32.822 332.022 33.0343C336.671 33.8303 339.872 35.9264 341.627 39.3225C343.215 42.2412 343.563 45.7959 342.672 49.988ZM331.144 50.3867C331.482 48.7948 331.43 47.1498 330.988 45.4516C330.424 43.382 329.334 42.2146 327.717 41.9493C325.332 41.5248 322.719 42.6392 319.88 45.2924C317.633 47.3619 315.972 49.5111 314.895 51.7398C314.29 53.0134 313.841 54.3401 313.548 55.7197C313.209 57.3117 313.261 58.9568 313.703 60.6549C314.267 62.7244 315.357 63.8919 316.974 64.1571C318.591 64.4225 320.555 63.8388 322.867 62.406C325.794 60.6018 328.103 57.9219 329.796 54.3666C330.401 53.093 330.851 51.7664 331.144 50.3867Z" fill="#D40000"/>
<path d="M392.365 48.7144C391.091 54.7108 387.204 59.4602 380.704 62.9627C374.964 66.0406 368.055 67.8448 359.978 68.3755L356.628 84.1356C356.346 85.4622 355.546 86.5501 354.228 87.3992C352.977 88.2482 351.515 88.6728 349.842 88.6728C348.168 88.6728 346.887 88.2482 345.996 87.3992C345.106 86.5501 344.802 85.4623 345.084 84.1356L355.303 36.0578C355.585 34.7312 356.319 33.6433 357.503 32.7942C358.765 31.8922 360.233 31.4411 361.906 31.4411C364.929 31.388 366.577 32.4493 366.851 34.6251C370.95 32.3432 374.839 31.2024 378.52 31.2024C383.74 31.2024 387.645 33.1393 390.235 37.013C392.568 40.5154 393.279 44.4161 392.365 48.7144ZM381.31 46.8833C381.559 45.3975 381.245 44.0443 380.366 42.8238C379.488 41.6033 378.146 40.9931 376.339 40.9931C372.993 40.9931 369.022 43.1422 364.428 47.4405L361.941 59.1416C373.643 58.2395 380.1 54.1532 381.31 46.8833Z" fill="#D40000"/>
<path d="M216.612 502.111H206.84V525.727H216.612V502.111Z" fill="#666666"/>
</g>
<defs>
<linearGradient id="paint0_linear_1_2" x1="298.359" y1="314.826" x2="298.359" y2="618.46" gradientUnits="userSpaceOnUse">
<stop stop-color="#E9E9EA"/>
<stop offset="1" stop-color="white"/>
</linearGradient>
<linearGradient id="paint1_linear_1_2" x1="278.447" y1="449.849" x2="497.455" y2="449.849" gradientUnits="userSpaceOnUse">
<stop stop-color="#888888"/>
<stop offset="1" stop-color="#333333"/>
</linearGradient>
<linearGradient id="paint2_linear_1_2" x1="105.467" y1="509.582" x2="238.625" y2="509.582" gradientUnits="userSpaceOnUse">
<stop stop-color="#888888"/>
<stop offset="1" stop-color="#333333"/>
</linearGradient>
<linearGradient id="paint3_linear_1_2" x1="230.535" y1="527.619" x2="112.312" y2="528.735" gradientUnits="userSpaceOnUse">
<stop stop-color="#888888"/>
<stop offset="1" stop-color="#333333"/>
</linearGradient>
<radialGradient id="paint4_radial_1_2" cx="0" cy="0" r="1" gradientUnits="userSpaceOnUse" gradientTransform="translate(172.023 496.491) rotate(88.8255) scale(204.161 102.028)">
<stop stop-color="#EDEDED"/>
<stop offset="1" stop-color="#0169C8"/>
</radialGradient>
<radialGradient id="paint5_radial_1_2" cx="0" cy="0" r="1" gradientUnits="userSpaceOnUse" gradientTransform="translate(175.413 437.135) rotate(108.308) scale(124.558 49.5201)">
<stop stop-color="#EEEEEE" stop-opacity="0.84444"/>
<stop offset="1" stop-color="#EEEEEE" stop-opacity="0"/>
</radialGradient>
<linearGradient id="paint6_linear_1_2" x1="476.902" y1="449.238" x2="289.007" y2="449.849" gradientUnits="userSpaceOnUse">
<stop stop-color="#888888"/>
<stop offset="1" stop-color="#333333"/>
</linearGradient>
<linearGradient id="paint7_linear_1_2" x1="384.513" y1="506.435" x2="387.951" y2="385.898" gradientUnits="userSpaceOnUse">
<stop stop-color="#EDEDED"/>
<stop offset="1" stop-color="#0169C8"/>
</linearGradient>
<linearGradient id="paint8_linear_1_2" x1="336.653" y1="449.849" x2="477.238" y2="449.849" gradientUnits="userSpaceOnUse">
<stop stop-color="#EEEEEE" stop-opacity="0.84444"/>
<stop offset="1" stop-color="#EEEEEE" stop-opacity="0"/>
</linearGradient>
<linearGradient id="paint9_linear_1_2" x1="278.448" y1="625.41" x2="278.448" y2="693.854" gradientUnits="userSpaceOnUse">
<stop stop-color="#888888"/>
<stop offset="1" stop-color="#333333"/>
</linearGradient>
<linearGradient id="paint10_linear_1_2" x1="37.801" y1="642.323" x2="539.019" y2="635.597" gradientUnits="userSpaceOnUse">
<stop stop-color="#EEEEEE"/>
<stop offset="1" stop-color="#EEEEEE" stop-opacity="0"/>
</linearGradient>
<linearGradient id="paint11_linear_1_2" x1="95.3104" y1="327.239" x2="97.5709" y2="165.131" gradientUnits="userSpaceOnUse">
<stop stop-color="#E9E9EA"/>
<stop offset="1" stop-color="white"/>
</linearGradient>
<linearGradient id="paint12_linear_1_2" x1="95.3104" y1="326.47" x2="97.5709" y2="164.362" gradientUnits="userSpaceOnUse">
<stop stop-color="#E9E9EA"/>
<stop offset="1" stop-color="white"/>
</linearGradient>
<linearGradient id="paint13_linear_1_2" x1="95.3105" y1="327.239" x2="97.5709" y2="165.131" gradientUnits="userSpaceOnUse">
<stop stop-color="#E9E9EA"/>
<stop offset="1" stop-color="white"/>
</linearGradient>
<linearGradient id="paint14_linear_1_2" x1="95.3103" y1="325.7" x2="97.5708" y2="163.592" gradientUnits="userSpaceOnUse">
<stop stop-color="#E9E9EA"/>
<stop offset="1" stop-color="white"/>
</linearGradient>
<linearGradient id="paint15_linear_1_2" x1="271.898" y1="113.107" x2="271.898" y2="191.331" gradientUnits="userSpaceOnUse">
<stop stop-color="#888888"/>
<stop offset="1" stop-color="#333333"/>
</linearGradient>
<linearGradient id="paint16_linear_1_2" x1="72.5877" y1="126.103" x2="472.573" y2="126.103" gradientUnits="userSpaceOnUse">
<stop stop-color="#AAAAAA"/>
<stop offset="0.48044" stop-color="#EDEDED"/>
<stop offset="1" stop-color="#EEEEEE" stop-opacity="0"/>
</linearGradient>
<linearGradient id="paint17_linear_1_2" x1="298.97" y1="6.21869" x2="298.97" y2="97.0566" gradientUnits="userSpaceOnUse">
<stop stop-color="#DADADB"/>
<stop offset="1" stop-color="white"/>
</linearGradient>
<clipPath id="clip0_1_2">
<rect width="588.32" height="650.32" fill="white"/>
</clipPath>
</defs>
</svg>
