<svg width="650" height="517" viewBox="0 0 650 517" fill="none" xmlns="http://www.w3.org/2000/svg">
<g clip-path="url(#clip0_0_1)">
<path d="M484.634 510.031C475.641 502.432 470.179 490.428 471.611 478.743C473.044 467.057 481.916 456.314 493.425 453.833C504.933 451.351 518.052 458.221 521.548 469.463C523.471 447.788 525.688 425.206 537.212 406.748C547.646 390.035 565.718 378.076 585.305 375.936C604.891 373.797 625.513 381.877 637.729 397.337C649.944 412.796 652.935 435.271 644.379 453.019C638.077 466.094 626.466 475.824 614.3 483.74C574.989 509.105 527.84 519.42 481.528 512.787" fill="#F2F2F2"/>
<path d="M618.36 382.325C602.199 395.489 587.373 410.211 574.096 426.279C553.318 451.34 536.504 479.438 524.24 509.593C523.342 511.793 526.915 512.751 527.802 510.576C547.868 461.566 579.901 418.37 620.972 384.938C622.816 383.436 620.189 380.836 618.36 382.325Z" fill="white"/>
<path d="M158.838 515.232H107.838C106.114 515.23 104.462 514.544 103.244 513.326C102.025 512.107 101.34 510.455 101.338 508.732V402.732C101.34 401.008 102.025 399.356 103.244 398.138C104.462 396.919 106.114 396.234 107.838 396.232H158.838C160.561 396.234 162.213 396.919 163.432 398.138C164.65 399.356 165.336 401.008 165.338 402.732V508.732C165.336 510.455 164.65 512.107 163.432 513.326C162.213 514.544 160.561 515.23 158.838 515.232Z" fill="#FFEDE1"/>
<rect width="66" height="221" transform="translate(221.338 295.232)" fill="#FFEDE1"/>
<path d="M400.838 516.232H349.838C347.849 516.229 345.943 515.439 344.537 514.033C343.131 512.626 342.34 510.72 342.338 508.732V171.732C342.34 169.743 343.131 167.837 344.537 166.431C345.943 165.025 347.849 164.234 349.838 164.232H400.838C402.826 164.234 404.733 165.025 406.139 166.431C407.545 167.837 408.336 169.743 408.338 171.732V508.732C408.336 510.72 407.545 512.626 406.139 514.033C404.733 515.439 402.826 516.229 400.838 516.232ZM349.838 166.232C348.38 166.233 346.982 166.813 345.95 167.844C344.919 168.875 344.339 170.273 344.338 171.732V508.732C344.339 510.19 344.919 511.588 345.95 512.619C346.982 513.65 348.38 514.23 349.838 514.232H400.838C402.296 514.23 403.694 513.65 404.725 512.619C405.756 511.588 406.336 510.19 406.338 508.732V171.732C406.336 170.273 405.756 168.875 404.725 167.844C403.694 166.813 402.296 166.233 400.838 166.232H349.838Z" fill="#3F3D56"/>
<path d="M522.967 515.732H471.967C470.244 515.73 468.592 515.044 467.373 513.826C466.155 512.607 465.469 510.955 465.467 509.232V34.2316C465.469 32.5083 466.155 30.8562 467.373 29.6376C468.592 28.4191 470.244 27.7336 471.967 27.7316H522.967C524.69 27.7336 526.343 28.4191 527.561 29.6376C528.78 30.8562 529.465 32.5083 529.467 34.2316V509.232C529.465 510.955 528.78 512.607 527.561 513.826C526.343 515.044 524.69 515.73 522.967 515.732Z" fill="#FFEDE1"/>
<path d="M648.485 515.807H1.19069C0.875495 515.806 0.573517 515.68 0.350965 515.457C0.128413 515.234 0.00346148 514.932 0.00346148 514.617C0.00346148 514.301 0.128413 513.999 0.350965 513.776C0.573517 513.553 0.875495 513.427 1.19069 513.426H648.485C648.8 513.427 649.102 513.553 649.324 513.776C649.547 513.999 649.672 514.301 649.672 514.617C649.672 514.932 649.547 515.234 649.324 515.457C649.102 515.68 648.8 515.806 648.485 515.807Z" fill="#3F3D56"/>
</g>
<path d="M292.468 224.563C292.565 223.993 292.522 223.411 292.344 222.858C292.165 222.304 291.855 221.792 291.435 221.358C291.015 220.923 290.495 220.578 289.912 220.345C289.33 220.112 288.698 219.997 288.062 220.009L280.741 207.022L278.852 212.463L283.783 224.317C283.879 225.284 284.364 226.187 285.145 226.854C285.925 227.52 286.948 227.905 288.018 227.936C289.089 227.966 290.133 227.639 290.954 227.018C291.774 226.396 292.313 225.523 292.468 224.563Z" fill="#A0616A"/>
<path d="M231.084 273.682L235.31 276.632L249.882 263.383L243.646 259.028L231.084 273.682Z" fill="#A0616A"/>
<path d="M240.384 285.918L227 276.607L230.985 271.976L239.198 277.69C240.569 278.644 241.465 280.047 241.687 281.59C241.91 283.133 241.441 284.69 240.384 285.918Z" fill="#2F2E41"/>
<path d="M253.638 289.169L259.055 289.314L262.159 271.089L254.166 270.875L253.638 289.169Z" fill="#A0616A"/>
<path d="M269.1 294.287L252.209 293.834L252.378 287.973L262.743 288.25C264.474 288.296 266.116 288.958 267.308 290.091C268.5 291.223 269.145 292.732 269.1 294.287Z" fill="#2F2E41"/>
<path d="M272.1 215.238C272.1 215.238 274.074 234.244 267.394 247.137L262.056 271.829L254.072 271.615L255.761 242.25L253.574 216.048C253.574 216.048 259.796 204.451 272.1 215.238Z" fill="#2F2E41"/>
<path d="M242.48 218.865L250.441 246.192L232.689 270.078L241.026 276.786L261.268 250.019L256.548 216.492L242.48 218.865Z" fill="#2F2E41"/>
<path d="M267.189 157.512C273.122 157.671 278.055 153.489 278.209 148.171C278.362 142.853 273.678 138.413 267.745 138.254C261.813 138.095 256.879 142.277 256.725 147.595C256.572 152.913 261.257 157.353 267.189 157.512Z" fill="#A0616A"/>
<path d="M258.277 161.058C258.277 161.058 264.986 157.295 272.209 166.164L272.612 220.792C272.612 220.792 267.101 213.546 255.037 219.927C242.973 226.307 240.552 218.75 240.552 218.75C240.552 218.75 233.825 162.177 258.277 161.058Z" fill="#CCCCCC"/>
<path d="M271.652 165.833C273.507 165.975 275.242 166.741 276.522 167.983C277.802 169.226 278.537 170.857 278.585 172.563L279.264 196.406L287.659 219.156L282.377 222.966L266.355 195.665L263.553 173.502C263.425 172.486 263.543 171.458 263.901 170.49C264.258 169.523 264.845 168.64 265.62 167.907C266.394 167.174 267.337 166.607 268.38 166.249C269.423 165.89 270.54 165.748 271.652 165.833Z" fill="#CCCCCC"/>
<path d="M259.508 154.994C261.214 156.72 264.499 155.906 264.794 153.619C264.817 153.441 264.821 153.262 264.806 153.083C264.717 152.064 264.09 151.124 264.278 150.055C264.321 149.789 264.439 149.538 264.621 149.325C266.067 147.68 269.279 150.203 270.643 148.715C271.479 147.803 270.57 146.308 271.222 145.281C272.081 143.925 274.489 144.67 276.033 143.957C277.751 143.163 277.717 140.826 276.643 139.376C275.333 137.608 272.976 136.62 270.625 136.423C268.275 136.227 265.921 136.736 263.7 137.447C261.178 138.254 258.667 139.396 257.073 141.327C255.135 143.676 254.862 146.896 255.715 149.727C256.235 151.448 258.115 153.585 259.508 154.994Z" fill="#2F2E41"/>
<defs>
<clipPath id="clip0_0_1">
<rect width="649.675" height="516.232" fill="white"/>
</clipPath>
</defs>
</svg>
