<svg width="650" height="517" viewBox="0 0 650 517" fill="none" xmlns="http://www.w3.org/2000/svg">
<g clip-path="url(#clip0_0_1)">
<path d="M484.634 510.031C475.641 502.432 470.179 490.428 471.611 478.743C473.044 467.057 481.916 456.314 493.425 453.833C504.933 451.351 518.052 458.221 521.548 469.463C523.471 447.788 525.688 425.206 537.212 406.748C547.646 390.035 565.718 378.076 585.305 375.936C604.891 373.797 625.513 381.877 637.729 397.337C649.944 412.796 652.935 435.271 644.379 453.019C638.077 466.094 626.466 475.824 614.3 483.74C574.989 509.105 527.839 519.42 481.528 512.787" fill="#F2F2F2"/>
<path d="M618.36 382.325C602.199 395.489 587.373 410.211 574.096 426.279C553.318 451.34 536.504 479.438 524.24 509.593C523.342 511.793 526.915 512.751 527.802 510.576C547.868 461.566 579.901 418.37 620.972 384.938C622.816 383.436 620.189 380.836 618.36 382.325Z" fill="white"/>
<path d="M158.838 515.232H107.838C106.114 515.23 104.462 514.544 103.244 513.326C102.025 512.107 101.34 510.455 101.338 508.732V402.732C101.34 401.008 102.025 399.356 103.244 398.138C104.462 396.919 106.114 396.234 107.838 396.232H158.838C160.561 396.234 162.213 396.919 163.432 398.138C164.65 399.356 165.336 401.008 165.338 402.732V508.732C165.336 510.455 164.65 512.107 163.432 513.326C162.213 514.544 160.561 515.23 158.838 515.232Z" fill="#FFEDE1"/>
<rect width="66" height="221" transform="translate(221.338 295.232)" fill="#FFEDE1"/>
<rect width="66" height="352" transform="translate(342.338 164.232)" fill="#FFEDE1"/>
<path d="M522.967 515.732H471.967C470.244 515.73 468.592 515.044 467.373 513.826C466.155 512.607 465.469 510.955 465.467 509.232V34.2316C465.469 32.5083 466.155 30.8562 467.373 29.6376C468.592 28.4191 470.244 27.7336 471.967 27.7316H522.967C524.69 27.7336 526.343 28.4191 527.561 29.6376C528.78 30.8562 529.465 32.5083 529.467 34.2316V509.232C529.465 510.955 528.78 512.607 527.561 513.826C526.343 515.044 524.69 515.73 522.967 515.732Z" fill="#FFEDE1"/>
<path d="M648.485 515.807H1.19069C0.875495 515.806 0.573517 515.68 0.350965 515.457C0.128413 515.234 0.00346148 514.932 0.00346148 514.617C0.00346148 514.301 0.128413 513.999 0.350965 513.776C0.573517 513.553 0.875495 513.427 1.19069 513.426H648.485C648.8 513.427 649.102 513.553 649.324 513.776C649.547 513.999 649.672 514.301 649.672 514.617C649.672 514.932 649.547 515.234 649.324 515.457C649.102 515.68 648.8 515.806 648.485 515.807Z" fill="#3F3D56"/>
</g>
<path d="M412.468 94.563C412.565 93.9935 412.522 93.4114 412.344 92.8575C412.165 92.3037 411.855 91.7917 411.435 91.3575C411.015 90.9233 410.495 90.5776 409.912 90.3446C409.33 90.1116 408.698 89.9971 408.062 90.009L400.741 77.022L398.852 82.4628L403.783 94.3175C403.879 95.2843 404.364 96.1867 405.145 96.8535C405.925 97.5204 406.948 97.9054 408.018 97.9357C409.089 97.9659 410.133 97.6393 410.954 97.0177C411.774 96.3961 412.313 95.5227 412.468 94.563Z" fill="#A0616A"/>
<path d="M351.084 143.682L355.31 146.632L369.882 133.383L363.646 129.028L351.084 143.682Z" fill="#A0616A"/>
<path d="M360.384 155.918L347 146.607L350.985 141.976L359.198 147.69C360.569 148.644 361.465 150.047 361.687 151.59C361.91 153.133 361.441 154.69 360.384 155.918Z" fill="#2F2E41"/>
<path d="M373.638 159.169L379.055 159.314L382.159 141.089L374.166 140.875L373.638 159.169Z" fill="#A0616A"/>
<path d="M389.1 164.287L372.209 163.834L372.378 157.973L382.743 158.25C384.474 158.296 386.116 158.958 387.308 160.091C388.5 161.223 389.145 162.732 389.1 164.287Z" fill="#2F2E41"/>
<path d="M392.1 85.2378C392.1 85.2378 394.074 104.244 387.394 117.137L382.056 141.829L374.072 141.615L375.761 112.25L373.574 86.0482C373.574 86.0482 379.796 74.4507 392.1 85.2378Z" fill="#2F2E41"/>
<path d="M362.48 88.865L370.441 116.192L352.689 140.078L361.026 146.786L381.268 120.019L376.548 86.4917L362.48 88.865Z" fill="#2F2E41"/>
<path d="M387.189 27.5122C393.122 27.6713 398.055 23.4892 398.209 18.1712C398.362 12.8532 393.678 8.41313 387.745 8.25406C381.813 8.09499 376.879 12.2771 376.725 17.5951C376.572 22.9131 381.257 27.3532 387.189 27.5122Z" fill="#A0616A"/>
<path d="M378.277 31.0584C378.277 31.0584 384.986 27.2948 392.209 36.1642L392.612 90.7925C392.612 90.7925 387.101 83.5464 375.037 89.9269C362.973 96.3074 360.552 88.7498 360.552 88.7498C360.552 88.7498 353.825 32.1773 378.277 31.0584Z" fill="#CCCCCC"/>
<path d="M391.652 35.833C393.507 35.9749 395.242 36.7408 396.522 37.9832C397.802 39.2256 398.537 40.8569 398.585 42.5631L399.264 66.406L407.659 89.156L402.377 92.9661L386.355 65.6647L383.553 43.502C383.425 42.4862 383.543 41.4575 383.901 40.4901C384.258 39.5226 384.845 38.6405 385.62 37.907C386.394 37.1736 387.337 36.6072 388.38 36.2486C389.423 35.8899 390.54 35.748 391.652 35.833Z" fill="#CCCCCC"/>
<path d="M379.508 24.9943C381.214 26.7205 384.499 25.9065 384.794 23.6187C384.817 23.4411 384.821 23.2618 384.806 23.0834C384.717 22.0641 384.09 21.1241 384.278 20.0555C384.321 19.7894 384.439 19.5379 384.621 19.3248C386.067 17.6802 389.279 20.2026 390.643 18.7153C391.479 17.8033 390.57 16.3078 391.222 15.2809C392.081 13.9255 394.489 14.67 396.033 13.9566C397.751 13.1627 397.717 10.8255 396.643 9.3757C395.333 7.60757 392.976 6.61961 390.625 6.4233C388.275 6.22699 385.921 6.73603 383.7 7.44657C381.178 8.25389 378.667 9.39577 377.073 11.3272C375.135 13.676 374.862 16.8964 375.715 19.7265C376.235 21.4482 378.115 23.5847 379.508 24.9943Z" fill="#2F2E41"/>
<defs>
<clipPath id="clip0_0_1">
<rect width="649.675" height="516.232" fill="white"/>
</clipPath>
</defs>
</svg>
